<?xml version="1.0" standalone="no"?>
<!DOCTYPE svg PUBLIC "-//W3C//DTD SVG 1.1//EN" "http://www.w3.org/Graphics/SVG/1.1/DTD/svg11.dtd">
<svg xmlns="http://www.w3.org/2000/svg">
<metadata>Generated by Fontastic.me</metadata>
<defs>
<font id="untitled-font-1" horiz-adv-x="512">
<font-face font-family="untitled-font-1" units-per-em="512" ascent="480" descent="-32"/>
<missing-glyph horiz-adv-x="512" />

<glyph glyph-name="brushing-teeth" unicode="&#97;" d="M462 274c-8 0-13-1-20-4-1-1-1 0-1 0 4 23 7 43 7 60 0 32-11 61-31 84-22 24-51 37-83 37-25 0-51-15-71-26-6-3-16-9-19-9-3 0-12 6-19 9-19 11-46 26-71 26-32 0-61-13-82-37-20-23-31-52-31-84 0-7 0-11 1-19 0-3-1-5-2-5-9-2-17-7-24-14-21-21-21-55 0-76 3-3 5-5 9-7 0-1 0-1 0-1 0-17 6-33 18-45 11-11 26-17 42-17 2 0 2 0 4 0 1 0 1 0 1 0 10-21 20-40 30-54 15-21 27-31 39-31 5 0 15 2 20 17 1 4 3 8 4 13 0 1 0 1 1 1 2 0 2 0 3 0 18 0 32 6 45 18 1 1 2 0 3 0 6-2 13-3 20-3 13 0 24 3 34 11 1 1 1 0 1 0 4-15 8-28 13-40 5-15 14-17 19-17l0 0c12 0 24 11 39 32 8 11 16 25 23 41 1 0 1 1 2 0 11-9 23-13 37-13 32 0 57 24 59 55 0 1 0 2 1 2 18 8 29 25 29 46 0 27-22 50-50 50z m-354-22c-1-1-1-1-2-2 0 0 0 0 0 0-8-11-13-24-13-37 0-13 12-33 12-37 0-7-13-6-20-6-10 0-18 4-25 11-18 17-7 40-8 42-1 2-11 2-19 10-12 12-12 30 0 42 5 6 13 9 21 9 23 0 29-24 33-24 4 1 9 25 28 25 6 0 11-3 16-7 2-2 3-4 4-7 1-1 0-2 0-2-7-2-13-5-19-9 0 0 0-1 0-1-1 0-2-1-3-2 0 0 0 0 0 0-1-1-2-2-3-2 0-1 0-1 0-1-1 0-1-1-2-2 0 0 0 0 0 0z m53-168c-1-2-2-3-2-4-2 0-9 3-23 23-9 12-18 29-27 47 0 1 0 1 0 1 5 2 8 4 12 7 0 0 0 0 0-1 0-17 7-33 20-46 7-7 13-11 22-14 1-1 1-2 1-2-1-5-2-7-3-11z m117 56c-6-6-14-9-23-9-17 0-24 12-27 11-3 0-2-4-11-14-8-7-18-12-30-12-11 0-21 5-29 12-22 22-7 45-10 48-1 2-15 4-24 14-13 13-9 32 1 45 0 0 0 0 0 0 0 0 1 0 1 1 0 0 0 0 0 0 0 0 1 1 1 1 0 0 0 0 0 0 0 0 0 0 1 1 0 0 0 0 1 1 0 0 0 0 0 0 0 0 1 0 1 1 0 0 0 0 1 0 0 0 0 1 0 1 5 4 12 6 19 7l1 0c0 0 1 0 1 0 25 0 34-26 38-26 4 1 10 27 31 27 7 0 14-3 19-8 21-21-3-41-1-45 2-4 24 4 39-10 6-6 9-14 9-23 0-9-3-17-9-23z m67-36c-12-18-20-24-22-24-1 1-2 2-2 4-5 13-9 28-13 44-1 3-2 5-3 8 0 1 0 2 0 2 4 8 6 16 6 25 0 15-6 29-16 40-6 6-12 11-20 13-2 0-3 2-3 4 1 14-4 28-15 38-9 10-22 15-36 15-12 0-24-4-34-13-8 6-15 10-25 11-1 0-2 1-2 1-2 9-6 17-12 23-9 9-21 14-33 14-11 0-21-4-29-10 0 0-1-1-2 0-6 4-13 7-21 8 0 0-2 1-2 4-1 8-1 12-1 19 0 50 35 102 94 102 16 0 36-7 54-19 3-2 7-5 11-8 1-1 3-2 4-3 4-3 10-8 17-12 3-2 7-4 11-6 15-6 31-9 48-9 17 0 37 4 37 6 0 3-35 3-58 9-9 2-19 7-19 10 0 0 3 2 6 4 2 1 4 3 7 4 18 10 42 24 62 24 59 0 95-52 95-102 0-13-2-30-6-47 0-1 0-2-1-1-6 2-11 3-17 3-24 0-44-19-46-42-24-4-43-26-43-52 0-28 20-51 48-53 1 0 1 0 1 0-7-13-14-25-20-34z m121 92c-3 0-8 2-10 0-2-3 1-9 2-12 0-1 0-3 0-5 0-19-16-34-35-34-11 0-23 5-28 15-2 3-3 8-6 9-2 0-7-3-9-4-4-2-8-3-11-3-16 0-29 13-29 29 0 16 13 29 29 29 12 0 16-5 19-2 2 3-5 8-5 21 0 12 10 22 22 22 27 0 22-29 26-30 5-1 11 19 31 19 14 0 26-12 26-26 0-13-10-26-22-28z"/>
<glyph glyph-name="clipboard-with-check-marks" unicode="&#98;" d="M401 344l-178 0c-7 0-13-5-13-12 0-6 6-12 13-12l178 0c7 0 12 6 12 12 0 7-5 12-12 12z m-297-15l24-20c3-2 6-3 10-3 3 0 7 1 10 4l34 29c5 4 6 12 1 17-4 5-12 6-17 1l-28-25-19 16c-5 4-13 3-17-2-4-5-3-13 2-17z m297-93l-178 0c-7 0-13-6-13-13 0-6 6-12 13-12l178 0c7 0 12 6 12 12 0 7-5 13-12 13z m-235 12l-28-24-19 15c-5 4-13 3-17-2-4-5-3-13 2-17l24-20c3-2 6-3 10-3 3 0 7 1 10 4l34 29c5 4 6 12 1 17-4 5-12 6-17 1z m235-121l-178 0c-7 0-13-6-13-13 0-6 6-12 13-12l178 0c7 0 12 6 12 12 0 7-5 13-12 13z m-235 12l-28-24-19 15c-5 4-13 3-17-2-4-5-3-13 2-17l24-20c3-2 6-3 10-3 3 0 7 1 10 4l34 29c5 4 6 12 1 17-4 5-12 6-17 1z m262 333c0 0-44 0-58 0-3 0-3 3-3 3l0 10c0 15-12 27-26 27l-170 0c-14 0-26-12-26-27l0-10c0 0 0-3-3-3-14 0-57 0-57 0-18 0-32-14-32-31l0-410c0-17 14-31 32-31l343 0c17 0 31 14 31 31l0 410c0 17-14 31-31 31z m-259 13c0 2 1 3 2 3l170 0c1 0 2-1 2-3l0-48c0-2-1-3-2-3l-170 0c-1 0-2 1-2 3l0 35z m266-454c0-4-4-7-7-7l-343 0c-4 0-8 3-8 7l0 410c0 3 4 7 8 7 0 0 43 0 58 0 2 0 2-2 2-2l0-9c0-7 2-12 6-17 3-4 8-8 14-9 0 0 0 0 0 0 2-1 3-1 5-1 1 0 1 0 1 0l170 0c2 0 3 0 5 1 2 0 3 1 5 1 0 0 1 1 1 1 9 4 15 13 15 24l0 9c0 0 0 2 3 2 14 0 58 0 58 0 3 0 7-4 7-7z"/>
<glyph glyph-name="damaged-tooth" unicode="&#99;" d="M473 458c-27 30-63 47-103 47-31 0-64-19-89-33-9-5-21-12-25-12-4 0-15 7-25 12-24 14-58 33-89 33-40 0-76-17-103-47-25-28-39-66-39-106 0-57 20-139 54-218 15-35 31-66 46-88 18-26 34-39 48-39 6 0 17 2 23 20 6 17 11 37 17 58 16 56 35 126 67 126l2 0c14 0 27-12 39-37 11-25 20-58 28-89 6-21 11-41 17-58 6-17 17-20 23-20l0 0c14 0 29 13 47 40 16 22 32 53 47 89 34 79 54 160 54 216 0 40-14 78-39 106z m-33-314c-15-34-31-65-45-86-16-24-27-32-31-31-1 0-3 3-4 7-6 16-11 35-17 56-8 33-17 66-30 93-15 32-33 48-56 48l-2 0c-22 0-40-16-55-48-12-26-22-60-31-92-5-21-11-41-17-57-1-3-3-7-4-7-2-1-11 1-31 31-15 21-31 51-45 84-32 76-52 156-52 210 0 13 1 26 5 38l18-32c3-4 9-7 14-7 1 0 1 0 2 0l69 11c2 0 5 0 7-2 1-2 2-4 1-6l-3-71c-1-3 0-5 2-6 2-2 5-3 8-2l55 13c1 0 1 0 2 0 4 0 8-3 9-7l8-36c1-4 2-5 3-5 1 0 1 2 2 5l3 60c0 3-1 6-3 8-2 2-4 3-7 3l-33 2c-2 0-5 1-6 3-2 2-2 4-2 6l11 73c0 3 0 5-2 7-2 2-4 3-7 3l-71-8c-2 0-5 1-6 2-1 2-2 4-1 6l11 70c10 3 21 5 33 5 22 0 49-11 70-25 5-3 12-9 18-14 6-4 14-10 22-15 4-2 9-5 13-7 52-22 96-8 94-5-1 3-31-1-60 7-16 5-30 12-31 14 0 3 12 9 23 15 22 13 53 30 79 30 77 0 122-68 122-133 0-52-20-132-52-208z"/>
<glyph glyph-name="decay-in-a-tooth" unicode="&#100;" d="M257 373c-7 0-15-1-22-4-23-9-36-29-30-45 4-11 16-17 31-17 7 0 15 1 22 4 11 4 20 11 26 20 6 8 7 17 4 25-4 11-16 17-31 17z m251-254l-111 111c-2 2-5 4-9 4-3 0-6-2-9-4l-5-5c0 0-2-2-3-1-5 5-18 18-18 18-2 2-1 4 0 5 17 23 26 51 26 80 0 36-14 70-39 95-26 26-60 40-96 40-36 0-70-14-95-40-4-4-6-4-8-3-14 12-29 15-46 15-27 0-51-11-69-31-17-19-26-44-26-70 0-37 13-89 35-139 10-23 20-42 30-57 13-18 23-26 34-26 3 0 13 1 18 15 4 11 7 24 11 37 6 22 13 48 23 63 1 2 2 2 2 1 13-12 27-21 44-27 2 0 2-1 2-2 4-11 7-23 11-35 3-14 7-26 11-37 4-14 14-15 18-15 10 0 20 8 33 27 10 14 20 34 30 57 2 4 4 8 7 12 1 2 3 3 5 4 0 0 2 2 4 0 4-4 15-15 19-19 2-2 1-4 1-4l-5-5c-3-2-4-6-4-9 0-3 1-7 4-9l110-111c3-2 6-3 9-3 4 0 7 1 9 3l47 47c2 2 4 6 4 9 0 3-2 7-4 9z m-398 49l-1 0c-3-13-6-24-10-35 0-1 0-3-2-3-1 0-6 4-16 18-9 13-19 32-28 53-21 48-34 98-34 132 0 40 29 81 76 81 11 0 21-2 35-10 2-1 2-3 1-3-14-22-22-48-22-74 0-31 9-58 28-82 2-2 1-3 0-4-2-4-5-8-7-14-9-16-15-38-20-59z m112 26c9-1 14-2 22-2 14 0 23 1 35 4 3 1 2-2 2-2-9-18-17-33-25-45-6-9-12-18-15-18-1 0-2 0-3 1-3 9-14 52-17 60 0 1 1 2 1 2z m103 52c-22-22-50-34-81-34-30 0-59 12-81 34-21 21-33 50-33 81 0 30 12 59 33 81 22 21 51 33 81 33 31 0 59-12 81-33 22-22 33-51 33-81 1-31-11-60-33-81z m161-139c-8-8-23-24-31-31-2-3-4-2-7 1-15 15-74 74-95 96-2 1 0 2 0 2l5 6c5 5 5 13 0 18l-23 23c0 0-1 1 0 2 1 1 2 3 3 4 1 1 2-1 2-1l23-23c3-2 6-3 9-3 4 0 7 1 9 3l6 5c0 0 1 2 3 0 22-22 83-82 97-96 1-2 1-4-1-6z"/>
<glyph glyph-name="dental-clinic" unicode="&#101;" d="M191 328c8-12 15-17 22-17 3 0 10 1 13 10 3 7 5 15 7 23 5 17 13 46 23 46l0 0c4 0 8-4 12-12 5-9 8-22 11-34 3-8 5-16 7-23 3-9 10-10 13-10 7 0 14 5 22 17 6 9 12 21 18 35 14 32 22 63 22 86 0 16-6 32-16 44-12 12-27 19-44 19-13 0-27-8-37-13-2-1-6-4-8-4-2 0-6 3-8 4-10 5-24 13-37 13-17 0-32-7-44-19-10-12-16-28-16-44 0-23 8-55 22-87 6-13 12-25 18-34z m20 168c7 0 17-3 25-9 2 0 4-2 5-3 1-1 2-1 3-2 2-2 5-4 9-6 1-1 3-2 5-3 8-3 17-5 25-5 9 0 35 7 35 8 0 3-33 2-44 5-2 1-5 2-5 2 0 1 2 2 3 2 8 5 20 11 29 11 28 0 44-24 44-47 0-20-7-51-20-80-6-13-12-24-17-32-4-5-6-9-8-9-3 0-4 13-6 20-3 13-7 26-12 37-7 14-15 21-26 21l0 0c-11 0-19-7-26-21-5-11-8-24-12-37-2-7-5-20-6-20-1-1-4 4-8 9-5 8-11 19-17 32-13 29-20 59-20 80 0 23 16 47 44 47z m172-193l-254 0c-10 0-18-8-18-18l0-267c0-10 8-18 18-18l73 0c11 0 19 8 19 18 0 0 0 36 0 49 0 4 4 4 4 4l62 0c0 0 4-1 4-5 0-12 0-48 0-48 0-10 9-18 19-18l73 0c10 0 18 8 18 18l0 267c0 10-8 18-18 18z m-7-284c-13 0-49 0-62 0-4 0-4 4-4 4l0 48c0 10-8 19-18 19l-72 0c-10 0-18-9-18-19 0 0 0-36 0-48 0-4-1-4-5-4-16 0-63 0-63 0 0 0-5-1-5 4 0 65 0 191 0 257 0 4 5 4 5 4l243 0c0 0 6 0 6-6 0-58 0-219 0-253 0-4-1-6-7-6z m-216 179l61 0c8 0 15 6 15 14l0 42c0 8-7 15-15 15l-61 0c-9 0-15-7-15-15l0-42c0-8 6-14 15-14z m4 49c0 3 1 3 3 3 12 0 35 0 47 0 2 0 3 0 3-4 0-7 0-19 0-25 0-3-1-5-3-5-12 0-35 0-47 0-2 0-3 1-3 3 0 7 0 20 0 28z m127-49l62 0c8 0 14 6 14 14l0 42c0 8-6 15-14 15l-62 0c-8 0-15-7-15-15l0-42c0-8 7-14 15-14z m4 49c0 3 0 3 3 3 11 0 41 0 49 0 1 0 2-1 2-2 0-8 0-22 0-30 0-1-1-2-2-2-8 0-38 0-49 0-2 0-3 1-3 3 0 7 0 21 0 28z m-4-140l62 0c8 0 14 6 14 14l0 42c0 8-6 14-14 14l-62 0c-8 0-15-6-15-14l0-42c0-8 7-14 15-14z m4 49c0 3 1 3 2 3 13 0 38 0 50 0 2 0 2-2 2-2 0 0 0-22 0-30 0-2-1-2-3-2-8 0-38 0-49 0-2 0-2 1-2 2 0 7 0 21 0 29z m-70 21l-62 0c-8 0-14-6-14-14l0-42c0-8 6-14 14-14l62 0c8 0 15 6 15 14l0 42c0 8-7 14-15 14z m-4-50c0-1-1-2-2-2-7 0-37 0-49 0-1 0-3 1-3 3 0 7 0 20 0 28 0 2 1 3 4 3 12 0 36 0 48 0 2 0 2-1 2-2 0-9 0-23 0-30z"/>
<glyph glyph-name="dental-device" unicode="&#102;" d="M474 439c-27 40-61 63-96 63-36 0-70-23-96-63-11-16-24-53-26-53-3 0-15 37-26 53-27 40-61 63-96 63-35 0-70-23-96-63-24-35-38-80-38-120 0-36 12-60 37-72 23-11 54-11 88-11 6 0 12 0 17 0 3 0 6 0 8 0 32 0 59 1 81 11 10 5 21 22 25 22 3 0 14-17 25-22 23-11 54-11 88-11 6 0 12 0 17 0 3 0 6 0 8 0 32 0 59 1 80 11 25 12 37 36 37 72 0 40-14 85-37 120z m-324-180c-2 0-5 0-8 0-3 0-5 0-8 0-3 0-6 0-9 0-2 0-5 0-8 0-65 0-93 6-93 60 0 35 12 75 33 107 22 33 50 52 77 52 26 0 54-19 76-52 12-18 22-39 27-60 1-1 1-4-1-4l-38 0c0 0-3 0-3 5 0 1 0 6 0 6 0 9-7 17-16 17l-75 0c-10 0-17-8-17-17l0-47c0-9 7-16 17-16l75 0c9 0 16 7 16 16 0 0 0 7 0 9 0 4 4 4 4 4l42 0c2 0 2-2 2-2 1-6 1-12 1-18 0-54-29-60-94-60z m244 0c-2 0-5 0-8 0-3 0-5 0-8 0-3 0-6 0-9 0-2 0-5 0-8 0-65 0-94 6-94 60 0 6 1 12 2 18 0 1 0 2 1 2l42 0c0 0 4-1 4-4 0-2 0-9 0-9 0-9 8-16 17-16l75 0c9 0 16 7 16 16l0 47c0 9-7 17-16 17l-75 0c-9 0-17-8-17-17 0 0 0-5 0-7 0-4-3-4-3-4l-38 0c-2 0-1 2-1 2 5 22 15 44 27 62 22 33 50 52 77 52 26 0 54-19 76-52 21-32 34-72 34-107 0-54-29-60-94-60z m31-47c-18 8-42 9-69 8-4 0-9 0-13 0-27 1-51 0-69-8-8-4-15-15-18-15-3 0-11 11-18 15-19 8-42 9-69 8-5 0-9 0-13 0-27 1-51 0-69-8-21-10-30-29-30-58 0-31 11-66 29-94 21-32 48-49 76-49 28 0 55 17 76 49 7 11 15 34 18 34 2 0 10-23 17-34 21-32 48-49 76-49 28 0 55 17 76 49 19 28 30 63 30 94 0 29-10 48-30 58z m-184-70l-25 0c0 0-4-1-4 3 0 0 0 3 0 3 0 8-7 15-15 15l-58 0c-8 0-15-7-15-15l0-36c0-9 7-15 15-15l58 0c8 0 15 6 15 15 0 0 0 2 0 3 0 3 3 3 3 3l22 0c2 0 1-1 1-2-12-42-43-81-76-81-43 0-82 66-82 119 0 39 20 43 69 43 2 0 5 0 7 0 4 0 8 0 13 0 2 0 4 0 6 0 49 0 69-4 69-43 0-3 0-6 0-9 0-1 0-3-3-3z m108-107c-33 0-64 39-76 81 0 1 0 2 2 2l22 0c0 0 3 1 3-3 0 0 0-3 0-3 0-9 6-15 15-15l58 0c8 0 15 6 15 15l0 36c0 8-7 15-15 15l-58 0c-9 0-15-7-15-15 0 0 0-3 0-3 0-3-4-3-4-3l-25 0c-3 0-3 1-3 2 0 3 0 7 0 10 0 39 20 43 69 43 2 0 4 0 6 0 4 0 9 0 13 0 2 0 4 0 6 0 49 0 69-4 69-43 0-53-38-119-82-119z"/>
<glyph glyph-name="dental-drill" unicode="&#103;" d="M507 117l-255 254c3 7 4 14 4 21 0 16-6 31-17 42l-37 36c-11 12-26 18-42 18-16 0-30-6-42-18l-94-94c-3-3-7-9-8-10-12-23-5-55 17-83l-29-30c-5-5-5-13 0-18 2-2 6-3 9-3 3 0 6 1 9 3l29 30c18-15 39-23 58-23 3 0 7 0 10 1 10 1 18 6 25 12l46 46c12-22 53-95 81-123l148-148c4-4 8-6 13-6 4 0 9 2 12 6l63 62c7 7 7 18 0 25z m-373 338c7 7 16 10 26 10 10 0 20-3 27-10l36-37c7-7 11-16 11-26 0-10-4-19-11-26l-70-71-89 89z m298-407l-145 146c-29 28-74 111-80 122l35 35 246-246z"/>
<glyph glyph-name="dental-instrument" unicode="&#104;" d="M506 117l-151 151c-3 3-7 5-12 5-5 0-9-2-13-5l-9-9-33 33c-1 1-3 2-1 6 24 55 16 106 4 117-65 65-304 84-290 70 3-3 231-62 258-89 23-23-13-94-24-124-1-3-6-12 8-25l33-33-9-10c-4-3-6-7-6-12 0-5 2-9 6-13l151-151c3-3 8-5 12-5 5 0 9 2 13 5l63 64c4 3 6 8 6 12 0 5-2 10-6 13z m-79-60c0 0-98 98-132 132-3 3-1 4 0 5 1 2 6 7 6 7 4 4 6 8 6 13 0 4-2 9-6 12 0 0-24 25-33 33-2 2 0 4 0 4l2 5c0 0 2 2 4 0 10-10 35-35 35-35 3-3 7-5 12-5 5 0 9 2 13 5 0 0 5 6 6 7 1 1 3 2 5 0 33-32 118-118 134-133 1-2 0-5-1-5-10-11-36-36-45-45-3-3-6 0-6 0z"/>
<glyph glyph-name="tooth-filling" unicode="&#105;" d="M256 390c-23 0-46 5-63 14-21 11-33 28-33 47 0 19 12 35 33 47 17 9 40 14 63 14 23 0 45-5 62-14 22-12 34-28 34-47 0-19-12-36-34-47-17-9-39-14-62-14z m0 99c-20 0-38-4-52-11-8-4-21-13-21-27 0-14 13-23 21-27 14-8 32-12 52-12 19 0 38 4 52 12 8 4 21 13 21 27 0 13-13 23-21 27-14 7-33 11-52 11z m159-162c-19 21-43 34-70 34-6 0-7-5-12-16-4-7-9-16-21-23-15-8-35-12-56-12-21 0-41 4-56 12-13 7-18 16-20 24-2 10-2 15-11 15-26 0-54-13-73-34-19-21-29-49-29-78 0-41 15-99 40-156 11-25 22-47 33-63 14-20 26-30 37-30 5 0 15 2 20 17 4 12 8 26 13 41 10 37 24 88 45 88l2 0c9 0 17-8 25-25 8-17 14-40 21-63 4-15 7-29 12-41 5-14 14-17 19-17 11 0 23 10 37 30 11 16 23 39 34 64 25 57 40 115 40 155 0 29-11 57-30 78z m-29-225c-10-24-21-45-32-60-10-15-16-22-18-21-1 0-2 1-2 3-4 11-8 25-12 39-6 24-13 48-22 67-12 24-26 36-43 36l-2 0c-17 0-31-11-42-36-9-19-16-43-23-66-4-15-8-29-12-40-1-2-2-4-4-3-2 1-6 4-17 20-10 15-22 36-32 60-23 53-38 110-38 148 0 38 28 82 73 91 5-29 45-50 96-50 50 0 90 21 95 50 46-9 73-53 73-91 0-37-14-93-38-147z m-110 250c0 0-5 0-7 0-1 0-1 0-1 1 0 4 0 18 0 18 0 3-3 7-6 7l-12 0c-4 0-7-4-7-7 0 0 0-14 0-18 0-1 0-1-1-1-1 0-6 0-6 0-4 0-5-3-2-6l17-21c3-3 7-3 9 0l18 21c2 3 1 6-2 6z"/>
<glyph glyph-name="molar-with-cavity" unicode="&#106;" d="M472 455c-26 29-63 46-102 46-31 0-65-19-89-32-10-5-22-12-25-12-4 0-16 6-25 12-25 13-58 32-89 32-40 0-76-17-103-46-25-28-39-65-39-105 0-56 20-136 54-213 15-35 31-65 46-87 18-26 34-38 47-38 6 0 17 2 24 20 6 17 11 36 17 57 16 55 35 123 67 123l2 0c14 0 26-12 38-36 12-24 20-57 29-88 6-20 11-40 17-56 6-17 17-20 23-20l0 0c13 0 29 13 47 39 15 22 31 52 46 87 34 79 54 158 54 212 0 40-13 77-39 105z m-33-309c-14-33-30-63-44-84-17-24-24-30-30-30-3 0-4 2-6 6-5 16-11 35-16 55-9 32-18 65-30 91-15 32-34 48-56 48l-2 0c-22 0-40-15-55-47-12-26-22-59-31-91-6-20-11-39-17-56-1-3-3-6-5-6-3-2-10 0-31 30-14 20-30 50-44 83-32 74-52 153-52 205 0 65 45 131 122 131 22 0 49-11 69-24 5-3 13-9 19-14 6-4 13-10 22-15 4-2 8-5 13-7 51-21 96-9 95-7-1 2-32 2-62 10-16 4-28 11-29 14 0 2 12 10 23 16 24 13 52 27 78 27 76 0 122-66 122-131 0-51-20-129-53-204z m-299 299c-11 0-22-2-33-6-36-14-56-46-47-70 7-17 25-27 48-27 11 0 23 3 34 7 17 7 31 18 40 31 9 13 11 27 7 39-7 16-25 26-49 26z"/>
<glyph glyph-name="molar-and-roots" unicode="&#107;" d="M473 455c-27 29-63 46-103 46-31 0-64-19-89-33-10-5-21-11-25-12-4 1-16 7-25 12-25 14-58 33-89 33-40 0-76-17-103-46-25-29-39-66-39-105 0-56 20-136 54-214 15-34 31-64 46-86 18-26 34-39 48-39 6 0 17 3 23 20 6 17 11 37 17 57 16 56 35 124 67 124l2 0c14 0 27-12 39-37 11-24 20-56 29-87 5-21 11-40 16-57 6-17 17-20 23-20 14 0 29 13 47 40 16 22 32 52 47 87 34 78 54 158 54 212 0 39-14 76-39 105z m-33-309c-15-34-31-64-45-84-17-25-27-31-31-31-2 0-3 3-4 7-6 16-11 35-17 55-9 32-18 65-30 91-15 32-34 48-56 48l-2 0c-22 0-40-16-55-48-12-26-22-59-31-90-6-21-11-40-17-56-1-4-3-6-5-7-2-2-10 1-31 30-14 21-30 50-44 83-7 15-13 30-18 46 19 16 97 72 203 72 64 0 117-21 150-38 24-12 42-25 51-32-6-15-12-31-18-46z m-20 100c-36 19-93 41-163 41-69 0-127-22-162-41-22-11-39-23-50-31-16 51-25 99-25 135 0 64 45 131 122 131 22 0 49-11 69-24 5-3 13-9 19-14 6-5 13-10 22-15 4-2 8-5 13-7 51-22 96-10 95-8-1 2-32 3-62 10-16 5-30 13-29 15 0 2 10 7 21 13 23 13 54 30 80 30 76 0 122-67 122-131 0-35-9-82-26-133-10 8-26 19-46 29z m-265-102c-13-16-30-23-39-16-9 7-6 26 7 42 12 15 29 22 38 15 9-7 6-25-6-41z m242 22c8-19 6-37-4-42-10-5-25 6-34 24-8 18-6 37 4 42 10 4 25-6 34-24z"/>
<glyph glyph-name="toothbrush" unicode="&#108;" d="M500 90l-106 106c-4 4-17 16-28 22-14 7-48 19-69 27l30 30c15 14 15 38 0 52l-174 174c-7 7-16 11-26 11-10 0-19-4-26-11l-90-89c-14-15-14-38 0-52l173-173c5-5 18-17 28-22 11-5 27-11 43-17 17-6 34-13 44-18 4-2 12-9 18-14l104-105c7-7 17-11 26-11 10 0 20 4 26 11l27 27c15 14 15 38 0 52z m-188 207l-38-38-189 187 39 40c2 1 5 1 7 0 0 0 14-14 17-17 1-1 0-2 0-2-7-12-13-20-12-21 1-1 9 5 21 12 0 0 1 1 2 0 6-6 23-23 27-27 1-1 0-2 0-2-10-14-14-23-13-24 1-1 9 5 24 13 0 0 1 1 2 0 2-3 8-9 11-11 1-1-1-2-1-2-16-19-21-33-20-35 1-1 16 5 34 21 0 0 2 1 3 0 14-15 46-47 52-53 1-1 1-2 1-2-9-14-12-22-12-23 1-1 10 2 23 11 0 0 1 1 2 0 2-1 4-4 6-5 1-1 0-3 0-3-4-8-8-13-7-14 0-1 6 3 15 8 0 0 0 0 1 0 2-2 5-6 5-6 0 0 1 0 1-1 0-1 0-3 0-5 0 0-1 0-1-1z m171-241l-27-27c-2-3-5-4-9-4-3 0-6 1-8 4l-105 104c-1 2-14 14-24 19-11 6-29 13-46 19-15 6-31 12-41 16-5 3-13 9-21 17l-173 173c-5 5-5 12 0 17l36 36c0 0 153-151 200-196 16-16 71-29 90-39 6-2 15-10 21-17l107-106c4-4 4-12 0-16z"/>
<glyph glyph-name="magnifying-glass" unicode="&#109;" d="M503 85l-138 138c-3 3-7 5-12 5-4 0-8-2-11-5l-7-7c0 0-1-2-3 0-7 6-23 23-23 23-2 2-1 4 0 5 21 29 33 63 33 100 0 45-18 87-49 119-32 31-74 49-119 49-45 0-88-18-119-49-32-32-50-74-50-119 0-45 18-87 50-119 31-32 74-50 119-50 32 0 60 7 86 24 0 0 4 3 6 1 5-5 19-19 24-24 2-2 0-5 0-5l-6-6c-3-3-5-7-5-12 0-4 2-8 5-11l138-138c3-3 7-5 11-5 4 0 8 2 11 5l59 58c3 3 4 7 4 12 0 4-1 8-4 11z m-430 158c-27 27-42 63-42 101 0 38 15 74 42 101 27 26 63 41 101 41 38 0 74-15 100-41 27-27 42-63 42-101 0-38-15-74-42-101-26-27-62-42-100-42-38 0-74 15-101 42z m363-212c-2-3-5-2-8 1-19 19-92 93-119 119-2 3 0 4 0 4l6 7c7 6 7 16 0 23l-28 28c0 0-2 2-1 3 2 1 4 3 5 4 1 2 3-1 3-1l28-28c3-3 7-5 11-5 5 0 9 2 12 5l6 6c0 0 2 3 5 0 27-27 103-103 120-120 2-2 2-5-1-7-9-10-29-30-39-39z"/>
<glyph glyph-name="dental-prosthesis" unicode="&#110;" d="M441 472c-22 26-54 40-88 40-27 0-56-16-77-27-6-4-17-11-20-11-3 0-13 7-20 11-21 11-50 27-77 27-34 0-65-14-88-40-22-24-34-56-34-90 0-21 4-47 10-76 6-27 25-50 64-68 12-5 34-9 38-13 4-4 9-21 9-21 0 0 1-4 0-4-9 0-17-7-17-17 0-9 8-16 17-16 0 0 8 0 10 0 2 0 3-2 3-2l6-18c0 0 0-3-4-3-9 0-16-8-16-17 0-9 7-16 16-16 0 0 10 0 13 0 3 0 4-2 4-2l6-20c0 0 1-1-1-1-1 0-6 0-6 0-9 0-16-8-16-17 0-9 7-16 16-16 0 0 13 0 17 0 2 0 2-2 2-2l11-31 0 0c6-15 18-22 36-22l1 0c18 0 31 7 37 22 0 0 8 24 10 31 1 2 2 2 2 2l18 0c9 0 16 7 16 16 0 9-4 17-16 17-3 0-5 0-6 0-2 0-1 3-1 3l6 18c0 0 1 2 2 2 4 0 15 0 15 0 9 0 16 7 16 16 0 9-6 17-15 17-2 0-3 0-4 0-2 0-1 2-1 2 0 0 5 14 7 20 0 1 1 1 1 1l12 0c9 0 16 7 16 16 0 10-7 17-16 17-2 0-2 2-1 3 1 6 4 18 9 22 5 4 25 8 37 13 39 17 59 43 64 66 7 30 11 57 11 78 0 34-12 66-34 90z m-167-442c-4-9-15-9-18-9-3 0-14 0-18 9l-8 24c0 0 0 1 1 1 13 0 38 0 50 0 1 0 1-1 1-1z m19 58c-19 0-55 0-73 0-1 0-2 1-2 1l-7 21c0 0 0 1 2 1 22 0 65 0 87 0 1 0 1-1 1-1l-8-22c0 0 0 0 0 0z m19 57c0 0 0-1-1-1-7 0-84 0-110 0-1 0-1 1-1 1l-7 21c0 0-1 1 1 1 34 0 94 0 125 0 1 0 1-1 1-1z m17 55c-37 0-146 0-146 0 0 0-1 0-2 1-1 3-4 11-5 16-1 3 1 2 1 2 26-5 51-7 79-7 28 0 54 2 80 7 0 0 2 0 1-1-1-4-4-12-5-16-1-1-2-2-3-2z m117 111c-1-4-4-11-5-15-6-15-24-28-49-39-13-5-27-10-43-14l-3-1c-27-6-58-10-90-10-31 0-62 4-89 10l-2 0c-17 4-32 9-45 15-25 11-44 26-50 40-2 4-5 16-5 16-6 26-7 50-7 69 0 54 38 109 101 109 17 0 38-7 58-20 3-2 7-5 11-8 2-1 4-2 5-3 5-4 11-9 19-13 4-2 7-4 11-6 17-7 34-11 52-11 18 0 40 5 40 7 0 3-38 3-62 9-10 3-21 7-21 10 0 2 3 4 6 6 2 1 5 3 8 5 19 10 45 24 67 24 64 0 102-55 102-109 0-19-3-44-9-71z"/>
<glyph glyph-name="pair-of-molars" unicode="&#111;" d="M487 335c-17 19-41 30-66 30-13 0-27-6-38-11-1 0-2 0-2 1-2 25-12 48-29 66-20 22-47 35-77 35-24 0-49-14-67-24-5-3-14-9-17-9-3 0-12 6-17 9-19 10-44 24-67 24-30 0-58-13-78-35-19-21-29-49-29-79 0-41 15-100 40-158 11-26 23-48 34-64 14-20 26-29 37-29 5 0 14 2 19 16 5 12 9 27 13 42 11 38 26 89 47 89 0 0 2 0 2-2 5-31 16-65 31-100 10-22 20-41 29-54 12-17 22-25 32-25 4 0 13 1 17 14 4 11 7 23 11 35 9 32 21 74 38 74l1 0c8 0 14-6 21-20 7-15 12-35 18-54 3-13 6-25 10-35 5-12 13-14 17-14 10 0 20 8 32 25 10 14 20 33 29 55 21 48 34 98 34 132 0 25-9 48-25 66z m-297-66c0-4 0-7 0-10 0-1 0-2-1-2-17 0-30-11-42-36-9-19-16-43-22-67l0 0c-5-15-8-29-13-41 0-1-1-3-1-3-2-1-9 4-21 21-10 15-22 37-32 61-24 54-39 112-39 150 0 47 33 94 88 94 14 0 33-6 50-17 2-2 6-4 9-7 2-1 3-2 4-3 5-3 10-7 17-11 3-2 6-4 10-5 14-7 29-10 45-10 16 0 39 5 39 8-1 3-29-2-58 8-8 2-18 5-18 8 0 1 3 2 5 4 2 1 5 2 8 4 16 9 38 21 57 21 54 0 86-46 87-91 0-1 0-2-1-2-3-2-8-5-10-5-3 0-10 4-14 7-16 8-37 20-57 20-25 0-48-11-65-30-16-18-25-41-25-66z m271-125c-9-20-19-39-27-51-8-12-13-18-15-17-1 0-2 3-2 3-4 10-6 20-9 32-6 20-11 40-19 57-10 21-22 31-38 31l-1 0c-15 0-27-10-37-31-7-16-13-37-19-56-3-13-7-25-10-35-1 0-1-1-1-1-2-1-7 4-16 16-8 13-18 31-27 51-19 45-32 94-32 126 0 38 27 77 72 77 12 0 27-5 42-14 2-2 5-4 7-6 2-1 3-2 4-3 3-2 8-6 14-9 3-2 5-3 8-5 12-5 25-7 38-7 14 0 40 4 39 8 0 3-29-1-54 7-5 2-13 4-13 5 0 1 1 2 2 3 2 1 4 2 7 3 13 8 32 18 47 18 45 0 72-39 72-77 0-31-12-79-32-125z"/>
<glyph glyph-name="tooth" unicode="&#112;" d="M472 455c-26 29-63 46-103 46-31 0-64-19-89-32-9-5-21-12-24-12-4 0-16 7-25 12-24 13-58 32-89 32-40 0-76-17-103-46-25-28-39-66-39-105 0-56 20-136 54-213 15-35 31-65 46-86 18-27 34-39 48-39 6 0 17 2 23 20 6 17 12 36 18 57 15 55 35 123 66 123l2 0c13 0 26-12 37-36 12-24 21-56 29-87 6-21 11-40 17-57 6-17 17-20 23-20 14 0 30 13 48 39 15 22 31 53 46 87 34 78 54 158 54 212 0 39-14 77-39 105m-112-40c0 0-33 1-62 9-13 3-29 10-29 12 0 2 17 12 21 15 23 12 54 29 79 29 76 0 122-66 122-130 0-51-21-129-53-203-14-33-30-63-44-84-17-24-27-31-31-30-2 0-2 2-3 6-6 16-11 35-17 55-8 32-17 65-30 91-15 32-34 48-56 48l-2 0c-22 0-40-16-56-48-12-25-21-58-30-90-6-21-11-40-17-56-2-4-2-6-4-6-2-1-10 0-31 29-14 21-30 50-44 83-32 74-52 153-52 205 0 64 45 130 121 130 20 0 45-9 69-24 4-2 8-6 13-10 2-1 4-3 6-4 5-4 13-9 21-15 4-2 9-5 14-7 19-8 39-12 60-12 21 0 35 4 35 4 0 0 3 1 3 2 0 0-3 1-3 1z"/>
<glyph glyph-name="dental-review" unicode="&#113;" d="M157 124c12-17 22-25 32-25 4 0 13 1 17 14 4 11 8 23 11 36 9 31 21 74 38 74l1 0c8 0 15-7 21-21 7-15 13-34 18-53 3-13 7-25 10-36 5-12 14-14 17-14 10 0 20 8 32 26 9 13 19 32 29 54 21 49 34 98 34 132 0 25-9 48-25 66-17 19-41 30-66 30-20 0-41-12-56-20-4-3-12-7-14-7-3 0-10 4-14 7-15 8-36 20-57 20-25 0-48-11-65-30-16-18-25-41-25-66 0-35 13-85 34-133 9-22 19-40 28-54z m28 264c12 0 28-5 42-14 2-1 5-4 8-6 1-1 2-2 3-2 4-3 8-7 14-10 3-1 5-3 8-4 12-5 25-8 38-8 14 0 21 1 23 2 5 1 16 4 16 6 0 1-13 1-17 1-5 0-19 1-37 6-6 2-13 4-13 6 0 1 5 4 9 7 14 8 32 16 47 16 45 0 72-39 72-77 0-31-12-79-32-125-9-20-19-38-27-51-9-12-14-18-16-17 0 0-1 1-1 1-3 10-6 22-9 34-6 20-11 41-19 57-10 21-22 31-38 31l-1 0c-14 0-26-10-37-31-7-16-13-36-19-56-3-13-6-24-9-34-1-1-1-2-2-2-2-1-7 4-15 17-9 12-19 30-28 50-19 46-32 94-32 126 0 38 27 77 72 77z m319-57c0 0-14-3-19-5-2 0-2 1-2 1-11 45-34 86-69 118-44 41-101 63-160 63-59 0-116-22-160-63-43-40-70-95-74-153-1-7 4-14 11-14 1 0 1 0 1 0 7 0 12 5 13 12 8 108 100 193 209 193 99 0 183-69 205-163 0 0 0-1-1-1-6-2-26-8-26-8-5-1-6-6-2-9l49-41c4-3 10-2 11 4l21 59c2 6-1 9-7 7z m-23-96c-7 0-13-5-13-12-9-108-101-193-210-193-98 0-183 69-204 163 0 0 0 1 1 1 7 2 24 7 24 7 6 2 7 6 2 10l-48 40c-5 4-10 2-12-3l-20-60c-2-6 1-9 6-7 0 0 14 4 21 6 1 0 2-2 2-2 10-45 34-85 69-118 43-40 100-62 159-62 60 0 117 22 160 62 44 41 70 95 75 154 0 7-5 13-12 14z"/>
<glyph glyph-name="doctor-suitcase" unicode="&#114;" d="M181 146l33 0c0 0 5 1 5-4 0-9 0-34 0-34 0-5 4-10 9-10l56 0c5 0 10 5 10 10 0 0 0 25 0 33 0 4 5 5 5 5l33 0c5 0 9 4 9 9l0 56c0 6-4 10-9 10 0 0-26 0-34 0-4 0-4 4-4 4l0 34c0 5-5 9-10 9l-56 0c-5 0-9-4-9-9l0-34c0 0 0-4-5-4-8 0-33 0-33 0-6 0-10-4-10-10l0-56c0-5 4-9 10-9z m305 241c0 0-65 0-87 0-4 0-4 4-4 4l0 69c0 11-9 19-20 19l-238 0c-11 0-20-8-20-19 0 0 0-52 0-69 0-4-5-4-5-4l-85 0c-15 0-27-12-27-27l0-301c0-15 12-27 27-27l459 0c14 0 26 12 26 27l0 301c0 15-12 27-26 27z m-345 63c0 5 4 6 4 6l221 0c0 0 5-1 5-6 0-13 0-46 0-59 0-2 0-4-5-4-55 0-220 0-220 0 0 0-5 0-5 4 0 15 0 43 0 59z m347-391c0-2-1-3-2-3l-459 0c-2 0-3 1-3 3 0 0 0 185 0 247 0 3 3 3 3 3l458 0c0 0 3 0 3-4 0-61 0-246 0-246z m-6 274c-113 0-452 0-452 0 0 0-6-1-6 4 0 6 0 23 0 23 0 2 1 3 3 3l459 0c1 0 2-1 2-3l0-23c0 0 0-4-6-4z"/>
<glyph glyph-name="medicine-pill" unicode="&#115;" d="M467 468c-28 28-66 44-107 44-40 0-78-16-107-44l-209-209c-59-59-59-155 0-215 29-28 67-44 108-44 40 0 78 16 107 44l208 209c29 29 45 67 45 107 0 41-16 79-45 108m-222-409c-25-25-58-39-93-39-36 0-69 14-93 39-52 51-52 134 0 186l104 104c0 0 109 108 110 109 2 1 4 3 5 4 7 4 14 8 21 12 14 6 29 10 44 11 7 1 14 1 21 0 2 0 3-1 5-1 2 0 3 0 5-1 1 0 3 0 4-1 2 0 4 0 5-1 2 0 3-1 4-1 2-1 3-1 5-2 2-1 5-2 8-3 1 0 2-1 3-2 2 0 3-1 4-1 1-1 2-2 3-2 1-1 2-1 2-1 1-1 1-1 2-1 8-6 15-11 20-15 7-6 11-9 13-12 1-1 3-4 3-4-1-1-3 1-6 3-3 2-7 5-13 9-5 4-13 8-21 11-9 4-19 7-30 9-5 1-11 1-17 1-6 0-12 0-18-1-13-2-25-6-37-13-6-3-12-7-18-11-1-1-105-101-110-107-2-2-2-4 0-6 39-39 148-148 166-166 2-2 2-4 1-5-33-33-102-102-102-102z"/>
<glyph glyph-name="toothpaste" unicode="&#116;" d="M404 505c-4 5-9 7-15 7l-267 0c-5 0-11-2-15-7-4-4-6-10-5-16l37-366c0-2 1-4 2-6 7-18 31-31 69-37-5-2-9-6-9-13l-5-50c0-4 1-8 4-11 3-4 7-5 11-5l89 0c5 0 9 1 12 5 2 3 4 7 3 11l-4 50c-1 6-4 11-9 13 0 0 0 0 0 0 0 0 0 0 0 0 13 2 23 4 35 9 27 10 34 24 36 35l36 365c1 6-1 12-5 16z m-282-14c0 1 0 1 0 1 0 0 0 0 0 0l267 0c0 0 0 0 0 0 1 0 1 0 1-1l-37-365c-2-12-29-29-97-29-60 0-92 14-97 27l0 1c0 0 0 1 0 1z m90-275l87 0c12 0 22 9 22 21l19 134 0 1 0 1c0 12-10 22-23 22l-123 0c-12 0-22-10-22-22l0-1 18-135c0-12 10-21 22-21z m-18 159l123 0c2 0 3-1 3-2l-18-134 0 0 0-1c0-1-2-2-3-2l-87 0c-1 0-2 1-2 2l0 1-18 134c0 1 1 2 2 2z"/>
<glyph glyph-name="wrapped-candy" unicode="&#117;" d="M458 427c0 0 0 0 0 0 0 0 0 0 0 0m54-110c0 1-1 1-1 0 0 0 1 0 1 0m-482-232c0 0 0 0 0 0 0 1 0 0 0 0m-11 59c0-1 0-1 0 0 0 0 0 0 0 0m473 60l0 75c0 8-5 15-12 17 4 3 7 7 8 12 0 5-2 10-6 15l-44 44c-3 3-8 5-13 5-6 0-12-3-15-8l-36-52c-7 12-20 20-35 20l-188 0c-16 0-30-10-36-23l-33 54c-3 6-9 9-15 9-5 0-9-2-13-5l-44-44c-4-5-6-10-5-15 0-5 3-9 7-12-7-2-12-9-12-17l0-75c0-8 5-15 12-17-4-2-7-7-7-11-1-6 1-11 5-15l44-44c4-4 8-6 13-6 6 0 12 3 15 8l35 51c7-11 20-18 34-18l188 0c17 0 31 10 37 24l34-56c4-6 9-9 15-9 5 0 10 2 13 6l44 44c4 4 6 9 6 15-1 4-4 9-8 11 3 1 5 3 7 5 3 3 5 8 5 12z m-424-75c0 0-1-1-1-1 0 0 0 1-1 1l-44 44 55 29c4 2 11 5 9 13-1 3-4 7-9 7-2 0-4-1-7-2l-53-16 0 75 52-16c4-1 6-2 7-2 5 0 8 3 9 7 2 7-5 11-8 13l-55 29 44 44c0 0 1 1 1 1 0 0 0-1 0-1l40-65c1-3 3-7 4-10l0-84c-1-4-3-8-5-10z m294 63c0-13-10-23-23-23l-188 0c-13 0-23 10-23 23l0 99c0 13 10 23 23 23l188 0c13 0 23-10 23-23z m113 12l-52 17c-3 1-5 1-7 1-5 0-8-3-9-7-2-7 5-11 8-13l55-29-44-44c0 0 0 0-1 0 0 0 0 0 0 0l-40 65c-2 5-4 13-4 18l0 70c0 5 2 12 5 16l38 56c1 1 1 1 1 1 0 0 0 0 1-1l44-44-55-29c-4-2-11-5-9-12 1-4 4-7 9-7 2 0 4 0 7 1l53 16 0-75 0 0z"/>
<glyph glyph-name="molar-inside-a-shield" unicode="&#118;" d="M323 404c-19 0-39-11-54-19-4-2-11-7-13-7-3 0-10 5-13 7-15 8-35 19-55 19-24 0-47-10-63-28-16-18-24-40-24-65 0-33 12-81 32-128 9-20 18-38 28-52 11-16 21-24 31-24 4 0 12 2 17 14 3 10 7 22 10 34 8 28 20 71 36 71l1 0c7 0 14-6 20-20 7-14 12-33 17-51 3-12 6-24 10-34 4-12 12-14 17-14 9 0 19 8 31 25 9 13 18 31 28 52 20 47 32 95 32 127 0 25-9 47-24 65-16 18-39 28-64 28z m38-212c-8-20-17-37-26-49-7-11-9-12-13-16-1 0-1 0-1 1-4 9-7 20-10 32-5 19-11 39-18 54-10 21-22 31-37 31l-1 0c-14 0-26-10-36-30-7-16-13-35-18-55-3-12-7-23-10-32 0-1 0-2-1-1-3 0-6 4-14 15-8 12-17 30-26 49-19 43-31 90-31 120 0 37 26 74 69 74 11 0 26-5 40-13 2-2 4-4 7-6 1-1 2-2 3-2 4-3 8-6 14-9 2-2 5-4 8-5 12-5 24-7 37-7 13 0 40 5 40 8 0 2-32-2-55 7-4 2-11 4-11 5 0 1 0 1 1 2 2 1 4 2 6 3 13 7 31 17 45 17 43 0 69-37 69-74 0-30-12-75-31-119z m121 200c-1 15-12 30-25 36l-180 80c-6 3-13 4-21 4-8 0-16-1-22-4l-180-80c-13-6-24-21-24-36-1-8-7-184 26-242 33-58 172-140 178-144 6-4 13-6 22-6 8 0 16 2 22 6 6 3 145 86 178 144 33 58 26 234 26 242z m-47-230c-30-52-168-134-170-135-2-1-6-2-9-2-4 0-8 1-10 2-1 1-139 83-168 135-25 43-26 180-24 229 0 5 5 13 10 15l180 80c3 1 7 2 12 2 4 0 9-1 12-2l179-80c5-2 10-10 10-15 2-49 2-186-22-229z"/>
<glyph glyph-name="mouthwash" unicode="&#119;" d="M368 201c0-16-13-29-29-29-17 0-30 13-30 29 0 16 13 29 30 29 16 0 29-13 29-29z m-58-53c0-11-8-20-19-20-10 0-19 9-19 20 0 10 9 19 19 19 11 0 19-9 19-19z m19 265c0 0-6 2-6 8 0 8 0 29 0 29 0 47-37 62-67 62-30 0-67-15-67-62 0 0 0-21 0-27 0-7-4-10-6-11-15-8-19-9-31-18-35-25-54-65-54-115l0-254c0-14 11-26 25-26l266 0c14 0 25 12 25 26l0 254c0 76-42 118-85 134z m-73-15c22 0 131-5 131-119 0 0 1-8-7-8l-249 0c-6 0-5 8-5 8 0 114 108 119 130 119z m123-371c-61 0-180 0-243 0-8 0-10 3-10 9 0 36 0 139 0 199 0 2-1 6 6 6l249 0c6 0 6-3 6-5 0-60 0-163 0-198 0-7-2-11-8-11z"/>
<glyph glyph-name="pill-bottle" unicode="&#120;" d="M424 349l-60 43c-6 5-14 14-17 20l-9 14c0 0-1 2 1 2 6 0 25 0 25 0 6 0 11 5 11 11l0 62c0 6-5 11-11 11l-215 0c-7 0-12-5-12-11l0-62c0-6 5-11 12-11 0 0 18 0 24 0 2 0 1-3 1-3l-8-13c-4-6-12-15-18-20l-60-43c-10-7-18-22-18-35l0-245c1-45 94-69 186-69 48 0 93 6 127 17 49 17 59 38 59 53l0 244c0 13-8 28-18 35z m-6-279c0-7-11-19-43-30-31-10-74-16-119-16-45 0-88 5-119 16-31 10-43 22-43 29l0 245c0 5 1 11 8 16l60 43c8 6 19 18 24 26l15 24c0 0 2 5 7 5 22 0 80 0 96 0 5 0 7-4 7-4l15-25c5-8 16-20 24-26l60-43c8-6 8-11 8-16l0-244z m-61 47l-201 0c-12 0-22 9-22 21l0 107c0 12 10 21 22 21l201 0c5 0 11-2 15-6 4-4 6-9 6-15l0-107c0-12-10-21-21-21z m-201 21l200 0 0 107-200 0z"/>
<glyph glyph-name="round-test-tube" unicode="&#121;" d="M419 329c-24 32-57 56-95 69 0 0-1 1-1 3 0 10 0 42 0 42l12 0c14 0 25 11 25 24l0 20c0 14-11 25-25 25l-158 0c-14 0-25-11-25-25l0-20c0-13 11-24 25-24l13 0c0 0 0-32 0-43 0-1-2-2-2-2-38-13-71-37-95-69-28-36-42-79-42-124 0-113 92-205 205-205 113 0 205 92 205 205 0 45-14 88-42 124z m-214 49l7 2c0 0 2 1 2 3 0 11 0 63 0 82 0 1-1 2-3 2-8 0-33 0-33 0 0 0-1 0-1 1l0 18c0 1 0 2 1 2 39 0 157 0 157 0 0 0 0-1 0-1l0-20c0 0 0 0 0 0 0 0-25 0-34 0-3 0-3-2-3-4 0-18 0-67 0-79 0-3 2-4 2-4l7-2c45-13 81-43 104-81 1-1 2-4-3-4l-303 0c-6 0-4 3-3 5 22 38 59 67 103 80z m51-354c-100 0-181 81-181 181 0 21 3 38 10 57 0 0 1 4 5 4 84 0 331 0 331 0 4 0 6-2 6-3 6-18 10-38 10-58 0-100-81-181-181-181z m-54 157c0-24-19-43-43-43-23 0-42 19-42 43 0 23 19 42 42 42 24 0 43-19 43-42z m63-69c0-16-12-28-28-28-15 0-28 12-28 28 0 15 13 28 28 28 16 0 28-13 28-28z"/>
<glyph glyph-name="smiling-lips" unicode="&#122;" d="M512 288c-1 3-3 6-5 9-11 10-117 103-167 103-27 0-46-14-61-25-9-7-17-13-23-13-6 0-14 6-23 13-15 11-33 25-61 25-50 0-156-93-166-103-3-3-5-6-6-10l0-5c0-5 2-10 6-13 5-5 11-13 19-23 19-23 45-56 82-83 47-34 97-51 148-51 52 0 103 18 151 54 38 27 65 61 83 83 6 8 21 26 22 28 1 2 2 7 1 11z m-120-103c-44-33-90-49-137-49-46 0-91 16-134 47-35 25-85 81-82 84 1 1 22-10 33-15 45-21 111-52 183-52 74 0 142 32 187 53 11 5 30 15 30 14 1-3-45-56-80-82z m-293 81c0 2 124 13 151 13 4 0 8 0 12 0 29 0 152-10 152-13 0-4-99-42-159-42-58 0-156 37-156 42z m367 23c-14 0-31 0-52 1-17 1-38 3-60 6-30 3-62 7-92 7-4 0-8 0-12 0-28 0-59-4-89-8-23-2-44-5-62-5-11-1-19-1-26-2-9 0-15 0-25 0-10 0-15 1-12 4 15 12 29 24 54 42 37 26 67 42 82 42 20 0 34-11 47-20 12-9 23-17 37-18 14 1 25 9 37 18 14 9 28 20 47 20 15 0 45-16 83-42 24-17 42-30 55-43 2-2-3-2-12-2z"/>
<glyph glyph-name="test-tube-with-liquid" unicode="&#65;" d="M296 132c0-11-9-20-20-20-11 0-20 9-20 20 0 12 9 21 20 21 11 0 20-9 20-21z m61 92c0-16-14-30-31-30-16 0-30 14-30 30 0 17 14 31 30 31 17 0 31-14 31-31z m72 244c0 25-20 44-45 44l-256 0c-25 0-45-19-45-44 0-18 11-33 27-40 1 0 2-1 2-5l0-255c0-46 13-88 36-118 26-32 63-50 108-50 44 0 81 18 107 50 24 30 36 72 36 118l0 255c0 4 2 4 2 5 17 6 28 22 28 40z m-53-127c0-5-5-5-5-5l-232 0c0 0-3 0-3 5 0 20 0 57 0 78 0 5 4 5 4 5l232 0c0 0 4 0 4-5 0-21 0-58 0-78z m-120-317c-88 0-120 78-120 144l0 142c0 0 0 3 4 3 58 0 174 0 231 0 5 0 5-4 5-4l0-141c0-66-32-144-120-144z m131 424l-262 0c-11 2-18 10-18 20 0 12 9 20 21 20l256 0c12 0 21-8 21-20 0-10-8-18-18-20z"/>
<glyph glyph-name="empty-syringe" unicode="&#66;" d="M394 153l-16 0 0 202c0 13-9 28-21 33l-81 42c-3 1-9 4-9 7 0 17 0 64 0 64 0 6-5 11-11 11-6 0-11-5-11-11 0 0 0-50 0-64 0-4-6-6-9-7l-81-42c-14-7-21-24-21-53l0-182-16 0c-15 0-27-12-27-27l0-12c0-15 12-27 27-27 0 0 58 0 79 0 3 0 3-2 3-3 0 0 0-12 0-16 0-2-2-2-2-2l-31 0c-15 0-27-12-27-27l0-12c0-15 12-27 27-27l178 0c15 0 27 12 27 27l0 12c0 15-12 27-27 27l-32 0c0 0-1 0-1 1 0 5 0 17 0 17 0 1 0 3 2 3 18 0 80 0 80 0 15 0 27 12 27 27l0 12c0 15-12 27-27 27z m-100-69c0 0 0-23 0-31 0-5 4-5 4-5l47 0c5 0 9-4 9-9l0-12c0-5-4-9-9-9l-178 0c-5 0-9 4-9 9l0 12c0 5 4 9 9 9 0 0 35 0 47 0 2 0 4 1 4 4 0 8 0 32 0 32 0 2 1 3 2 3l72 0c1 0 2-1 2-3z m109 30c0-5-4-9-9-9l-276 0c-5 0-9 4-9 9l0 12c0 5 4 9 9 9l29 0c0 0 4 0 4 4 0 13 0 50 1 60 0 1 0 2 2 2 27 0 102 0 102 0 5 0 9 4 9 9 0 5-4 9-9 9 0 0-75 0-102 0-1 0-2 0-2 3 0 7 0 21 0 29 0 3 3 3 3 3l148 0c5 0 9 4 9 9 0 5-4 9-9 9 0 0-111 0-148 0-3 0-3 1-3 4 0 6 0 25 0 25 0 0-1 4 3 4 25 0 101 0 101 0 5 0 9 4 9 9 0 5-4 9-9 9 0 0-75 0-101 0-3 0-3 3-3 4 0 2 0 8 0 8 0 15 2 33 11 38l81 41c3 2 7 3 12 3 5 0 9-1 12-3l81-41c6-3 11-12 11-18 0 0 1-161 1-215 0-4 3-5 5-5 7 0 28 0 28 0 5 0 9-4 9-9z"/>
<glyph glyph-name="drop-of-toothpaste" unicode="&#67;" d="M367 410c-20 27-42 52-64 72-32 30-43 30-47 30-4 0-14 0-47-29-21-20-44-45-63-72-39-53-86-135-86-227 0-105 84-184 196-184 112 0 196 79 196 184 0 90-46 172-85 226z m-111-385c-97 0-171 69-171 159 0 83 43 158 78 207 40 56 81 95 93 95 12 0 51-37 94-96 35-49 77-125 77-206 0-90-74-159-171-159z m121 198c-7 0-12-6-12-13 0-69-57-122-131-122-7 0-13-6-13-13 0-7 6-12 13-12 89 0 156 63 156 147 0 7-6 13-13 13z"/>
</font>
</defs>
</svg>
